<svg width="160" height="107" viewBox="0 0 160 107" fill="none" xmlns="http://www.w3.org/2000/svg">
<path d="M0 0.333374H160V107H0V0.333374Z" fill="#FFD520"/>
<path d="M0 107H160V0.333374L0 107Z" fill="#FF4E12"/>
<path d="M85.6426 33.6827C84.756 33.368 84.1834 33.8258 84.2122 34.9705C84.2405 36.1154 84.8419 36.7735 85.7287 36.3442L85.6426 33.6829V33.6827Z" fill="white" stroke="black" stroke-width="0.521"/>
<path d="M86.4213 31.5387C85.6828 30.9556 84.9937 31.2056 84.6531 32.2989C84.3125 33.392 84.6702 34.2086 85.648 34.087L86.4213 31.5389V31.5387Z" fill="white" stroke="black" stroke-width="0.521"/>
<path d="M87.6515 29.464C87.0151 28.7698 86.2951 28.9062 85.7834 29.9307C85.2723 30.9552 85.4945 31.8183 86.4798 31.8551L87.6515 29.464ZM86.8444 39.5494C85.7569 39.9501 85.6421 41.4383 86.3295 42.354C87.0163 43.2697 88.2755 43.4415 88.9621 42.354L86.8447 39.5487L86.8444 39.5494Z" fill="white" stroke="black" stroke-width="0.521"/>
<path d="M85.5857 36.4009C84.5553 36.0575 83.6271 37.4415 83.4678 38.6904C83.2678 40.2644 81.0353 40.7794 82.2664 43.1549C82.5233 41.6381 83.5256 40.8082 84.3265 40.751C85.1279 40.6937 86.3301 40.522 86.8451 39.549L85.5857 36.4009ZM88.8479 42.5254C87.6456 42.8116 87.4737 44.4143 88.3324 45.559C89.0671 46.5391 91.3658 46.303 91.3087 45.33L88.8479 42.5254ZM92.2541 52.1698C92.311 51.1396 90.652 50.7389 89.8504 50.9392C89.049 51.1396 87.5178 50.9108 87.1601 50.0521C86.8742 50.7389 87.289 51.4831 88.4483 51.855C89.3253 52.1368 89.3068 52.7709 89.049 53.0571C89.7075 53.1716 91.6534 53.1716 92.2541 52.17V52.1698Z" fill="white" stroke="black" stroke-width="0.521"/>
<path d="M91.3102 45.5885C90.1368 45.0735 89.4412 45.858 88.9923 46.6187C88.3338 47.7348 86.302 46.3041 85.6152 47.7921C86.5455 47.3915 87.4922 48.2459 87.9331 48.5362C89.1923 49.3661 91.625 49.1087 91.9687 47.1626L91.3102 45.5885V45.5885Z" fill="white" stroke="black" stroke-width="0.521"/>
<path d="M91.9964 46.9609C90.8231 47.848 90.3653 48.9069 90.3943 49.6225C90.4231 50.338 91.4245 51.9119 92.5121 51.9977C93.1416 50.7099 93.4565 47.9912 91.9966 46.9609H91.9964ZM87.1324 52.4845C87.1324 52.0552 87.7621 51.8836 88.1909 52.0265C88.6206 52.1696 89.2783 52.599 89.0495 53.0569L87.1324 52.4845V52.4845ZM80.6631 50.1378C80.5489 49.6228 81.3786 48.7355 82.4949 49.2221C83.6104 49.7085 83.7541 50.653 83.2956 51.0251L80.6631 50.138V50.1378Z" fill="white" stroke="black" stroke-width="0.521"/>
<path d="M83.3813 51.0818C83.2954 50.7956 84.099 50.224 85.4709 50.5666C86.8442 50.9101 87.1811 51.7945 87.131 52.4841L83.3811 51.0818H83.3813ZM80.5208 50.1378C81.2364 49.5942 80.9653 48.5636 80.3199 48.2489C79.1466 47.6765 79.5763 46.1885 78.8319 45.9023C78.0883 45.616 77.3727 45.1008 77.3439 44.5858C76.972 45.3012 77.2008 45.9595 77.7164 46.4175C78.2312 46.8754 77.3157 48.7355 77.9735 49.2221L80.5208 50.1378V50.1378ZM65.1804 49.7378C64.5795 48.7935 63.1484 48.9652 62.5475 49.6233C61.9466 50.2816 62.0325 51.2546 62.6047 51.6838L65.1804 49.7378ZM68.615 48.3352C68.3861 47.076 66.8693 46.9328 66.0394 47.2477C65.2095 47.5624 64.6371 48.8217 65.1807 49.7375L68.6152 48.3352H68.615Z" fill="white" stroke="black" stroke-width="0.521"/>
<path d="M70.9049 48.1627C71.4485 47.1039 70.3898 45.5298 69.1877 45.3008C68.1843 45.1099 66.9984 45.1149 66.6121 44.1275C66.3689 44.9862 67.0128 45.5298 67.7569 46.0164C68.5009 46.503 67.6137 47.7622 68.8158 48.4775L70.905 48.1629L70.9049 48.1627Z" fill="white" stroke="black" stroke-width="0.521"/>
<path d="M70.7911 48.2001C70.5406 47.4415 71.0487 46.4324 72.0767 46.5032C73.1052 46.5739 73.691 47.3209 73.2376 48.2552L70.7909 48.2001H70.7911Z" fill="white" stroke="black" stroke-width="0.521"/>
<path d="M73.0791 48.2569C72.9375 47.4708 73.5822 46.5431 74.5902 46.7574C75.5985 46.9716 76.0734 47.7938 75.494 48.6551L73.0791 48.2569Z" fill="white" stroke="black" stroke-width="0.521"/>
<path d="M75.3528 48.6178C75.2506 47.8255 75.9409 46.9311 76.9372 47.1954C77.9336 47.4598 78.3669 48.3048 77.7446 49.1359L75.3528 48.6178ZM58.0835 61.7289C56.166 61.7289 55.6977 62.1855 55.422 64.1615C55.0785 66.6226 58.427 66.9089 58.0835 61.7289Z" fill="white" stroke="black" stroke-width="0.521"/>
<path d="M58.9422 59.153C55.9944 58.0369 54.3919 62.7016 51.4728 61.8717C52.5173 63.5316 55.0494 61.8747 55.9944 62.0435C57.5971 62.3297 61.0598 61.7286 58.9422 59.1528V59.153ZM57.0239 65.5352C55.5644 64.8771 53.9903 67.1092 54.2766 68.0822C54.6399 69.3181 57.9683 68.3112 57.0239 65.5352ZM50.2133 75.1512C51.0147 75.3793 51.9875 75.8378 51.8159 77.383C51.6442 78.9283 48.7253 82.0763 46.0924 82.2483C43.4595 82.4202 42.515 85.5963 40.2542 84.7091C42.3718 84.3091 42.3719 81.9046 44.0318 81.161C42.8296 80.7313 42.2001 83.4506 40.6549 83.4506C39.1095 83.4506 38.3655 85.9114 36.4766 85.7395C34.5877 85.5683 34.3889 88.7357 30.6099 88.7736C27.7192 88.8017 24.1422 92.1787 22.8543 90.7195C25.659 90.3188 26.7907 88.7647 28.4636 87.0559C31.1537 84.3092 34.1873 85.5395 35.2174 83.1069C33.9868 83.9366 32.556 84.3371 31.1537 84.3092C29.3934 84.2728 27.462 87.1137 25.4872 85.8543C26.6319 85.7114 27.3761 85.2248 28.5781 83.9654C29.8088 82.6758 31.6151 83.5092 33.0426 82.1914C35.2748 80.1306 37.1923 81.8477 39.3386 79.2721C38.7375 78.9862 37.4497 79.1862 36.2478 79.8157C35.0456 80.4454 33.5004 79.3862 32.1267 80.1306C32.2983 78.4424 35.5036 79.4084 37.507 78.2417C39.7679 76.9254 41.6424 77.3114 43.4311 77.4691C40.9413 77.455 39.9683 75.0934 36.5342 75.7802C35.0364 76.0803 33.844 73.7201 32.3559 74.9217C32.3985 74.0351 33.9585 73.3194 35.5612 74.178C37.1637 75.0365 37.8097 73.4267 40.9987 75.4372C42.3151 76.2669 44.5759 74.9217 46.0067 75.8091C45.8207 75.2655 45.0051 74.9217 44.0465 74.9935C44.6474 73.7633 48.5253 73.9203 50.2136 75.1514L50.2133 75.1512Z" fill="white" stroke="black" stroke-width="0.521"/>
<path d="M52.7608 73.2898C51.5016 72.3169 49.7558 73.4904 48.5539 73.0322C48.5539 73.8333 48.9546 75.0358 50.271 75.4934C50.6718 75.2075 52.4746 73.6333 52.7608 73.2898Z" fill="white" stroke="black" stroke-width="0.521"/>
<path d="M54.736 70.5147C52.7612 69.5131 52.4179 72.0027 50.8725 71.4877C50.9297 72.2032 51.5022 73.0904 52.7614 73.2907L54.7361 70.5147H54.736Z" fill="white" stroke="black" stroke-width="0.521"/>
<path d="M55.9093 68.2534C52.9902 67.1085 52.6181 69.9133 50.9011 69.3695C51.3018 70.3425 53.763 70.8575 55.0222 70.5144L55.9093 68.2534ZM59.9146 55.9761C59.1418 54.8886 57.5107 55.7757 57.2531 57.0635C56.9955 58.3514 57.625 60.1544 58.7126 59.7537L59.9144 55.9761H59.9146Z" fill="white" stroke="black" stroke-width="0.521"/>
<path d="M61.8897 52.5414C60.5447 52.2268 58.9992 52.3697 59.171 53.6863C58.6558 53.9151 58.5127 55.6037 59.915 55.9756L61.8897 52.5413V52.5414Z" fill="white" stroke="black" stroke-width="0.521"/>
<path d="M62.7768 51.6542C61.4604 50.1088 59.9923 50.1449 59.171 50.7956C57.6542 51.9977 56.1802 51.3108 56.1374 52.5129C57.0533 51.8116 57.8545 52.6558 58.5985 52.3982C59.3425 52.1408 59.8863 53.5716 61.947 52.9707L62.7768 51.6542V51.6542ZM59.5999 74.7511C59.8003 75.123 61.0309 75.2948 61.6319 74.6653C62.4284 73.8304 61.5461 71.5168 60.2869 71.3453C59.0277 71.1735 58.9132 73.9497 59.5999 74.7511V74.7511Z" fill="white" stroke="black" stroke-width="0.521"/>
<path d="M58.1688 74.8081C59.9717 75.4659 60.7445 73.9779 59.7715 73.0337C59.5137 73.3484 58.5694 74.4933 58.1688 74.8081Z" fill="white" stroke="black" stroke-width="0.521"/>
<path d="M51.415 77.2685C51.0716 78.2989 49.2972 78.4708 47.294 81.676C45.2906 84.8811 43.3733 83.536 42.8867 85.7396C45.2906 83.7936 47.1786 85.0863 48.6102 83.164C50.7854 80.2447 52.5763 80.6639 53.4182 78.6994C54.62 75.895 59.886 75.9521 60.1722 71.5449C58.398 71.2015 52.7886 75.9521 51.415 77.2683V77.2685ZM96.5759 33.9974C98.8655 34.7414 98.9226 37.7177 101.555 38.6907C104.189 39.6637 104.446 42.0104 106.592 41.4381C104.589 40.8943 104.732 38.5762 102.643 38.0038C100.193 37.3325 99.2661 33.5965 97.3194 33.0242L96.5759 33.9974ZM107.079 49.5369C107.48 50.4527 107.423 52.084 105.992 52.5133C106.764 52.9999 107.909 52.5417 108.538 51.4831C107.594 53.5721 108.224 55.461 109.712 55.8331C108.996 54.3736 110.599 53.6866 110.084 52.7423C111.029 53.143 111.858 54.4308 111.829 55.2321C113.061 53.8584 110.914 52.0267 111.315 50.7391L107.079 49.5371V49.5369ZM92.2542 64.2463C90.8518 63.0157 90.2534 64.5681 89.5638 64.0315C88.9203 63.5307 88.0616 63.4591 87.7327 63.96C88.9349 64.0031 88.3475 64.933 90.6801 65.162C88.3475 65.3195 88.7772 67.9238 87.2172 67.7949C88.8773 69.3689 89.7358 66.3926 91.0808 66.8793C90.6801 66.9937 91.7105 67.938 90.995 69.1972C92.1541 69.1688 92.6261 67.5659 92.7697 66.7361L92.2542 64.2463V64.2463ZM61.3742 77.6116C60.859 77.1826 59.3708 76.9819 58.7985 77.3257C58.2261 77.6687 58.4266 77.7545 59.1132 77.8123C59.8003 77.8694 60.687 78.9805 59.1992 79.0427C58.5123 79.0708 58.7413 80.7309 57.3103 80.8457C57.897 81.5613 59.5713 81.0888 60.1722 80.3021C60.0577 80.9456 60.9162 81.5323 60.5729 82.3051C61.6318 82.42 61.0165 80.1592 62.6908 80.2731C62.0038 80.3592 62.2901 81.9044 63.492 81.5037C62.7765 81.8473 63.1486 82.677 63.9498 82.477C63.4348 82.6488 63.263 83.3065 63.9784 83.6792C64.6654 82.7348 63.8926 79.3577 61.3742 77.6118V77.6116ZM123.707 46.0347C125.897 46.0347 127.672 44.2587 127.672 42.0681C127.672 39.8779 125.897 38.1019 123.707 38.1019C121.515 38.1019 119.74 39.8779 119.74 42.0681C119.74 44.2587 121.515 46.0347 123.707 46.0347Z" fill="white" stroke="black" stroke-width="0.521"/>
<path d="M102.987 50.8258C104.189 49.6809 106.021 49.1086 107.279 49.9671C108.538 50.8258 112.717 51.856 114.778 50.4251C116.838 48.9942 117.811 48.25 118.727 48.4217C119.414 49.4521 120.244 49.9385 121.274 50.0244C121.589 50.3678 122.705 50.6541 123.335 50.568C124.25 50.797 125.367 50.511 126.253 49.5378C127.628 49.7382 128.915 48.7079 129.402 47.1627C130.861 46.991 130.947 45.3595 130.031 44.272C129.173 44.1005 129.831 41.2098 126.711 41.7822C128.028 42.5837 127.026 44.1862 128.114 44.9303C127.37 44.9303 126.411 45.2452 126.182 46.3614C126.468 45.5886 126.139 45.0734 125.939 44.9019C125.967 44.2436 124.508 42.6267 123.134 43.2134C124.122 43.4279 123.564 45.0164 124.279 45.6173C123.764 45.6459 123.22 45.9035 122.905 46.3613C122.533 45.7031 121.217 45.0162 120.416 44.959C120.416 44.73 120.373 44.2722 120.273 44.0434C119.915 43.3565 119.614 42.5408 119.757 41.4962C119.07 42.2402 118.498 43.2704 118.155 44.0146C117.067 43.2706 114.377 44.3581 113.118 44.6441C111.859 44.9303 107.623 44.2436 106.65 43.2132C105.677 42.183 103.788 41.5534 102.014 41.0382C99.5742 40.3302 99.5526 37.6614 96.8623 35.8297C96.8054 39.1495 101.842 49.6811 102.987 50.8258H102.987ZM74.9404 76.1236C77.0582 76.1236 78.7752 74.4066 78.7752 72.2887C78.7752 70.1709 77.0582 68.4541 74.9404 68.4541C72.8225 68.4541 71.1055 70.171 71.1055 72.2887C71.1055 74.4066 72.8225 76.1236 74.9404 76.1236Z" fill="white" stroke="black" stroke-width="0.521"/>
<path d="M65.7813 73.176C66.5539 74.1778 67.8704 74.1208 68.4142 74.0347C68.8721 75.2363 70.3315 75.208 70.9612 75.8658C71.5909 76.5245 73.7369 76.4674 74.3665 76.0948C73.7946 76.0379 73.0505 75.6948 72.3349 75.0934C71.4713 74.368 71.8769 72.9185 71.19 72.4034C71.7052 71.831 71.7911 70.8866 71.6766 70.5145C72.2206 70.1997 72.6211 69.6845 72.6784 69.4269C73.6229 69.3697 74.4526 68.8833 74.7962 68.5113C75.2828 68.9691 76.5132 68.368 77.1719 69.1407C77.3148 67.2518 75.5118 66.2502 74.3097 66.8799C73.8229 66.6225 72.5354 66.7942 72.3065 67.1376C71.9057 66.9657 70.7897 67.5382 70.2745 67.9103C70.8469 67.5956 70.9326 66.6511 70.7036 66.3076C71.1902 66.1073 71.734 65.4489 71.7911 64.9625C72.478 65.077 73.5081 64.6191 73.9658 64.7336C73.2222 63.7606 71.9916 63.4171 70.7322 63.503C69.43 63.5746 68.8721 64.4904 68.7004 65.4777C67.9278 65.9357 67.6702 67.4809 67.9564 68.0248C67.5127 68.0105 67.0977 68.4399 66.9262 68.6831C66.3253 68.4253 65.4666 68.2395 64.8513 68.2395L65.7813 73.176ZM65.1235 66.6801C64.8659 65.9361 65.2071 65.2662 65.3811 64.6769C65.8247 63.1746 65.5529 62.788 64.2078 62.9883C64.0933 63.7039 64.7802 66.0505 65.1235 66.6801V66.6801Z" fill="white" stroke="black" stroke-width="0.521"/>
<path d="M64.1368 63.0729C64.4803 63.4164 65.6967 63.5737 65.8254 62.4863C65.9733 61.2379 65.4677 60.7547 64.38 61.2413C64.2944 61.5275 64.1941 62.7008 64.1368 63.0729Z" fill="white" stroke="black" stroke-width="0.521"/>
<path d="M64.3946 61.1991C64.8526 61.3851 65.84 61.7572 66.3836 60.6983C66.8398 59.8102 66.2405 59.1243 65.2961 59.1814C65.0672 59.4391 64.6094 60.3547 64.3946 61.1991V61.1991Z" fill="white" stroke="black" stroke-width="0.521"/>
<path d="M65.2391 59.0961C65.3536 59.4395 66.5269 60.5841 67.3854 59.7544C68.2441 58.9243 68.2441 57.6939 66.9561 57.236C66.6126 57.293 65.5824 58.495 65.2391 59.0961V59.0961Z" fill="white" stroke="black" stroke-width="0.521"/>
<path d="M66.9546 57.2365C67.2122 57.9519 68.0135 59.1825 69.5016 58.6102C70.9898 58.0378 70.3603 56.1777 69.6734 55.8056C69.2727 55.834 67.6414 56.5782 66.9546 57.2365V57.2365Z" fill="white" stroke="black" stroke-width="0.521"/>
<path d="M69.6746 55.8054C69.5601 56.4351 69.6746 58.152 71.7064 58.1234C73.7381 58.095 73.1662 55.7195 72.651 55.376C71.8209 55.376 70.4188 55.4045 69.6746 55.8054V55.8054Z" fill="white" stroke="black" stroke-width="0.521"/>
<path d="M72.7359 55.4605C72.507 55.947 71.9911 59.1494 75.9699 58.2651C76.4847 58.1506 77.83 55.2029 72.7359 55.4605Z" fill="white" stroke="black" stroke-width="0.521"/>
<path d="M74.9102 55.7467C74.5102 56.1472 75.5398 59.3812 78.2302 58.8374C80.9205 58.2935 78.6598 55.2315 74.9102 55.7467Z" fill="white" stroke="black" stroke-width="0.521"/>
<path d="M77.1999 56.2338C76.771 57.1209 77.4154 59.7538 80.7347 59.7538C83.7429 59.7538 80.577 56.2911 77.1999 56.2338Z" fill="white" stroke="black" stroke-width="0.521"/>
<path d="M79.8044 57.0071C79.5889 57.4989 79.3251 60.2903 83.2385 60.5271C86.0719 60.6989 85.3852 56.6923 79.8044 57.0071Z" fill="white" stroke="black" stroke-width="0.521"/>
<path d="M84.0124 58.1805C83.5265 59.0391 83.011 61.1855 87.3036 61.3572C90.054 61.4674 88.3628 58.2377 84.0124 58.1805Z" fill="white" stroke="black" stroke-width="0.521"/>
<path d="M87.5893 58.8383C86.9596 59.697 87.4234 61.3811 89.0197 61.7002C91.0232 62.1009 91.3093 60.2122 89.9359 59.2963C88.5617 58.3805 87.5893 58.8383 87.5893 58.8383Z" fill="white" stroke="black" stroke-width="0.521"/>
<path d="M89.5359 59.2383C89.0782 60.0397 89.3617 61.9857 92.3975 61.9857C93.0271 61.9857 95.4316 59.5245 89.5359 59.2383ZM66.0408 96.5592C68.4995 96.5592 70.4927 94.5658 70.4927 92.1073C70.4927 89.6481 68.4995 87.6546 66.0408 87.6546C63.582 87.6546 61.5887 89.6481 61.5887 92.1073C61.5887 94.5658 63.582 96.5592 66.0408 96.5592Z" fill="white" stroke="black" stroke-width="0.521"/>
<path d="M98.6933 31.8232C98.3497 32.1666 97.6348 33.1969 97.491 33.5974C96.003 38.0619 99.9754 41.3967 102.299 46.1894C104.131 49.9672 103.902 55.9197 101.04 59.6973C100.061 60.9896 100.353 61.3572 99.094 62.6737C98.611 63.1787 98.0636 63.8185 98.2355 65.65C99.0369 65.3638 100.181 66.108 100.41 66.7377C100.983 66.4514 101.784 66.5659 102.07 66.9092C103.043 66.4514 103.844 66.6802 104.703 67.5961C105.447 67.4817 106.249 67.5961 106.992 68.3974C107.393 67.5961 108.195 67.3099 108.767 67.4817C108.709 66.4514 109.74 65.7074 110.655 66.108C110.369 64.7343 111.629 63.7039 112.831 64.1046C113.861 63.3033 115.921 63.2461 116.952 64.4481C115.12 63.933 115.178 65.8792 113.632 65.7073C114.032 66.8521 113.002 67.5103 111.972 67.8822C112.63 67.5675 113.346 67.1954 113.575 67.596C114.147 67.0953 115.292 67.2813 115.578 67.5389C116.336 67.2957 117.067 67.4816 117.409 68.3974C118.44 69.0271 119.127 70.6296 118.383 71.8317C118.154 70.5725 117.295 70.6297 116.952 70.1145C116.15 70.4008 115.349 70.4008 115.12 69.8856C114.662 70.3435 113.117 70.7442 112.43 70.0573C112.172 71.0875 111.285 71.9462 110.255 71.9462C110.541 72.7474 109.74 74.1215 109.11 74.8081C110.084 75.3229 109.797 76.468 109.568 77.1547C111.056 77.3835 109.797 78.7 112.372 79.5584C111.114 79.9592 108.652 79.5585 108.309 78.0132C107.05 77.9563 106.191 76.6969 106.249 75.3798C105.275 74.4642 105.132 73.148 106.478 72.2322C105.332 72.5757 104.703 70.7442 103.043 71.4882C102.218 71.8584 100.038 71.2306 100.067 70.4578C99.7233 71.0303 97.6346 70.8015 97.3479 69.8285C96.6611 70.2004 95.0581 69.5707 95.0871 68.6264C94.1996 69.0271 92.9982 68.3117 93.0551 67.3958C92.2256 67.2813 92.1395 66.5371 92.1968 65.9078C91.4522 65.5641 91.6529 64.8488 91.939 63.9903C91.4241 63.4178 91.6529 62.6166 92.0537 61.8724C91.4812 61.3 91.5959 60.6132 91.7671 59.812C89.0197 59.583 85.5781 58.9204 77.6871 56.4923C65.7818 52.8292 62.5765 61.4146 65.2094 66.7949C68.2471 73.0029 64.8659 74.3504 65.8963 78.9869C66.9838 79.2157 67.5561 80.1313 67.499 81.1046C68.1425 81.1327 68.6005 81.7336 68.3717 82.8788C68.9153 82.7787 69.6167 82.9357 70.0745 83.3935C70.4752 82.6498 71.7918 82.4779 72.4785 83.3366C73.9665 83.2216 74.7107 84.4239 74.6537 85.9121C75.4545 87.3432 75.1685 89.0891 74.31 90.2047C74.3959 89.604 74.31 88.7455 74.2819 88.2306C74.2286 87.2832 72.9077 87.0856 73.051 86.3128C72.364 86.3698 71.7057 85.9981 71.4769 85.4832C71.0762 85.8262 70.5038 85.941 70.0174 85.7691C70.79 86.1128 71.3911 87.4861 71.1621 88.4017C71.5628 89.0891 71.4768 90.3483 70.9904 90.892C70.7614 92.0075 69.9029 92.4084 68.7868 91.9217C69.4165 91.5217 69.6455 90.8061 69.6167 90.2045C69.2161 89.8616 69.0158 89.2031 68.9872 88.8024C67.8711 88.9741 66.3257 88.0297 66.0407 87.6564C63.5818 87.6564 61.5886 89.6498 61.5886 92.109C61.4741 91.1928 60.3157 90.2905 60.4588 89.5179C59.772 87.4 60.745 85.4253 63.5497 85.0253C63.2064 84.2239 64.4083 83.3933 63.9504 82.4779C63.3655 81.3081 62.2906 79.7876 60.6881 78.0134C61.6611 76.3533 61.3749 74.1215 60.8025 72.7476C59.9806 70.775 59.1998 71.2596 56.2807 74.4646C51.5233 79.6882 45.1767 78.2424 39.5674 81.6765C38.0769 82.589 36.5912 82.9357 38.1937 81.3334C39.7964 79.7305 44.032 78.1284 46.7792 76.7544C51.924 74.1817 56.2805 69.8859 57.9977 61.5295C62.0327 41.8921 76.8848 48.365 86.2714 52.0281C95.0841 55.4674 93.4833 47.6779 89.0188 42.9846C83.6529 37.3435 84.7262 32.9112 87.2448 29.3624C91.7662 28.7327 100.438 30.3067 98.6922 31.8237L98.6933 31.8232Z" fill="white" stroke="black" stroke-width="0.521"/>
<path d="M114.635 80.0632C117.34 80.0632 119.533 77.8706 119.533 75.1654C119.533 72.46 117.34 70.2669 114.635 70.2669C111.929 70.2669 109.736 72.46 109.736 75.1654C109.736 77.8706 111.93 80.0632 114.635 80.0632Z" fill="white" stroke="black" stroke-width="0.521"/>
<path d="M95.9466 32.0507C94.8592 36.8587 95.7747 39.0337 97.3777 41.1513C100.69 45.5284 103.33 55.5177 99.5525 62.042" stroke="black" stroke-width="0.521"/>
<path d="M96.6613 37.6756C96.8473 37.5753 97.405 37.4036 97.3339 36.9888M101.669 56.4063C102.127 56.2345 102.986 55.6909 103.186 54.7463L101.669 56.4063ZM102.012 54.3174C102.155 53.4875 103.443 53.1298 103.472 52.2427L102.012 54.3174ZM102.041 51.0818C101.955 50.2231 103.329 49.4505 103.128 48.592L102.041 51.0818ZM101.298 47.992C101.183 47.5055 102.442 46.5897 102.099 45.8171L101.298 47.992ZM100.354 44.9876C100.096 44.4438 100.955 43.8143 100.583 43.2418L100.354 44.9876ZM98.9795 42.5823C98.8937 42.2103 99.4233 41.3947 99.1372 40.9083L98.9795 42.5823ZM97.6053 39.7503C97.7195 39.6071 98.1778 39.2637 97.9911 38.8345L97.6053 39.7503Z" stroke="black" stroke-width="0.521" stroke-linecap="round"/>
<path d="M125.221 41.3521C124.392 41.3807 123.705 40.6081 123.762 39.9498C123.762 40.4363 124.878 40.6653 125.221 40.3505M68.0142 91.6348C66.8694 91.234 65.4386 91.8067 65.1524 92.78L68.0142 91.6348ZM66.0107 93.6668C66.1538 92.6943 67.642 92.2644 68.0998 92.7222C67.1554 92.2076 66.6974 94.0387 67.5273 94.0964L66.0107 93.6668ZM75.2267 71.0303C74.5401 71.3738 74.3401 72.633 75.2267 73.5777V71.0303ZM76.256 71.3165C75.7702 71.7172 75.7982 72.9192 76.5138 73.2054C75.9129 72.7761 76.5138 72.0321 76.9435 72.0035C77.3723 71.9748 77.6582 72.4899 77.1435 73.0051L76.256 71.3165ZM116.466 74.1485C114.864 73.7195 113.575 75.5796 115.035 77.2397C115.007 75.6367 116.151 74.5782 117.553 74.8641L116.466 74.1485ZM116.908 75.9725C116.514 75.9725 116.293 76.2806 116.293 76.5805C116.293 76.8956 116.565 77.1962 117.009 77.1962C117.295 77.1962 117.524 76.8673 117.524 76.6095L116.908 75.9725ZM122.56 40.8365C122.818 41.8095 124.163 42.2102 125.222 41.9814L122.56 40.8365Z" stroke="black" stroke-width="0.521" stroke-linecap="round" stroke-linejoin="round"/>
<path d="M126.181 46.3601C126.081 46.718 125.823 47.2758 125.509 47.5192M68.4142 74.0348C68.1853 73.4623 69.1012 72.8899 69.1298 72.3459C69.1582 71.8024 70.16 71.3731 71.1902 72.4033L68.4142 74.0348ZM70.704 66.3085C70.5037 66.3944 70.3319 66.5089 70.1602 66.5661L70.704 66.3085ZM72.6791 69.4268C72.4358 69.4412 71.9351 69.4125 71.6631 69.2264L72.6791 69.4268ZM71.6782 70.5148C71.4779 70.615 71.0342 70.7868 70.7766 70.844L71.6782 70.5148ZM61.8613 87.8001C61.8327 88.3156 62.3479 89.0593 62.634 89.2881L61.8613 87.8001ZM64.0942 86.5699C63.808 86.9988 63.6365 87.7432 63.808 88.258L64.0942 86.5699ZM68.3574 88.2872C67.8422 87.9436 68.1856 87.0561 68.1284 86.4842C68.0711 85.9117 68.7293 84.9962 70.0173 85.7686L68.3574 88.2872ZM63.5502 85.025C64.0654 84.9391 64.6091 84.9672 64.9525 85.1103L63.5502 85.025ZM70.0747 83.393C69.8457 83.7076 69.7885 84.0515 69.76 84.2804L70.0747 83.393ZM72.4782 83.3361C72.0775 83.3361 71.7342 83.622 71.5625 83.9085L72.4782 83.3361ZM66.9262 68.6836C67.3842 68.8412 68.5718 69.5708 68.6148 70.3293L66.9262 68.6836ZM71.792 64.9628C70.3897 64.9341 69.8461 63.5032 70.9049 63.5032L71.792 64.9628ZM74.3111 66.8792C73.7675 67.1082 74.0253 68.0525 74.7977 68.5105L74.3111 66.8792ZM70.9618 75.8659C70.6898 75.5228 71.0477 74.5213 71.9348 74.8214L70.9618 75.8659ZM73.0507 86.3121C73.1076 85.4396 74.2098 84.924 74.6535 85.9114L73.0507 86.3121ZM68.9867 88.801C68.915 87.8424 69.4016 87.5277 69.8308 87.4707C70.2601 87.4136 70.8756 87.7706 71.1618 88.4003L68.9867 88.801ZM60.4587 89.5174C60.5159 88.945 61.0025 88.3441 61.5175 88.43L60.4587 89.5174ZM112.83 64.1041C112.458 64.3761 112.215 65.5921 113.631 65.7068L112.83 64.1041ZM110.656 66.1076C110.656 66.2508 110.842 66.4511 110.957 66.537L110.656 66.1076ZM117.41 68.3974C117.038 68.1112 116.079 69.2703 116.952 70.1146L117.41 68.3974ZM108.309 78.0134C108.095 77.1978 108.853 76.983 109.569 77.1548L108.309 78.0134ZM106.478 72.2321C106.907 71.9459 107.337 71.6312 107.881 71.4881L106.478 72.2321ZM106.249 75.3788C106.249 74.6922 106.592 74.1201 106.907 73.9484L106.249 75.3788ZM108.766 67.4819C108.709 68.3117 109.053 69.1132 109.311 69.5423L108.766 67.4819ZM115.579 67.5388C115.163 67.6676 114.791 67.825 114.634 68.1684L115.579 67.5388ZM115.12 69.8854C115.321 69.7137 115.55 69.5135 115.65 69.3704L115.12 69.8854ZM125.938 44.9005C125.938 45.7018 124.936 46.1311 124.279 45.6159L125.938 44.9005ZM128.114 44.929C128.557 45.2724 130.088 44.9434 129.73 44.0561L128.114 44.929ZM126.252 49.537C125.938 49.4797 125.394 49.1363 125.165 48.8502L126.252 49.537ZM129.401 47.1619C128.886 47.2764 128.542 47.1619 128.284 47.0474L129.401 47.1619ZM121.273 50.0241C121.559 50.0241 122.245 49.9096 122.718 49.6664L121.273 50.0241ZM120.414 44.9592C120.042 44.9165 119.77 44.9878 119.556 45.1309L120.414 44.9592Z" stroke="black" stroke-width="0.521" stroke-linecap="round"/>
<path d="M122.905 46.36C122.676 46.6747 122.533 47.1615 122.504 47.5906M119.442 47.6205C120.157 47.3058 121.045 49.7382 122.762 48.8797L119.442 47.6205Z" stroke="black" stroke-width="0.521" stroke-linecap="round" stroke-linejoin="round"/>
<path d="M90.0498 41.953C91.0231 43.1547 92.5113 43.8989 93.9134 41.8671M88.6773 42.641C88.9063 42.6125 89.307 42.5265 89.3929 42.2402L88.6773 42.641ZM59.2284 69.2845C60.0871 69.7711 60.688 70.601 60.3159 71.8315L59.2284 69.2845ZM98.5778 40.0081C98.8355 40.1798 99.8089 40.1798 100.353 39.9796L98.5778 40.0081ZM101.04 40.5805C101.011 40.9812 101.126 42.4978 100.353 42.8127L101.04 40.5805ZM100.64 42.6125C101.356 42.8415 102.787 42.7556 103.244 41.4392L100.64 42.6125ZM102.242 42.5538C102.614 43.1263 102.728 44.2424 101.612 44.8433L102.242 42.5538ZM102.528 43.4996C103.358 43.7858 105.275 43.8143 105.075 42.1832L102.528 43.4996ZM104.418 43.4996C104.99 44.3009 107.509 45.2454 107.108 43.5855L104.418 43.4996ZM102.1 45.8161C103.072 46.045 104.446 45.3867 103.874 43.6698L102.1 45.8161ZM106.62 44.529C106.763 45.1873 109.969 45.874 109.54 44.3858L106.62 44.529ZM108.939 45.2454C109.54 46.6191 112.716 46.5046 111.715 44.673L108.939 45.2454ZM111.2 46.1023C111.83 46.8751 114.635 46.417 113.519 44.5569L111.2 46.1023ZM113.488 46.0738C115.234 47.3903 117.266 45.5014 115.062 44.1277L113.488 46.0738ZM116.064 45.6454C117.61 46.876 119.499 44.6436 118.154 44.0141L116.064 45.6454ZM103.844 45.1298C104.33 45.273 105.361 45.2157 105.589 44.3286L103.844 45.1298ZM105.204 44.929C105.147 46.2312 107.336 46.732 107.894 45.2294L105.204 44.929ZM107.164 46.0454C107.565 46.9041 109.482 47.2472 109.797 46.0168L107.164 46.0454ZM109.483 46.5894C109.797 47.4481 111.457 47.3622 111.915 46.4749L109.483 46.5894ZM111.314 47.0481C111.829 48.1642 113.946 48.1642 114.433 46.5329L111.314 47.0481ZM114.062 47.2472C114.892 47.7624 116.667 47.5618 116.523 45.9594L114.062 47.2472ZM116.18 47.105C117.41 48.1067 119.156 47.1336 118.297 45.445L116.18 47.105ZM118.212 48.4205C118.87 48.306 119.213 46.9896 118.526 46.6463L118.212 48.4205ZM102.958 48.6498C104.332 47.9058 104.589 46.6466 103.645 45.4161L102.958 48.6498ZM104.132 47.3912C104.99 47.9062 106.621 47.3627 106.907 46.1034L104.132 47.3912ZM105.305 47.5334C105.791 48.1629 105.877 48.9357 105.247 49.6511L105.305 47.5334ZM105.705 48.3352C107.221 47.3908 109.11 49.1366 107.708 50.1954L105.705 48.3352ZM107.451 48.2498C107.794 48.164 108.395 47.5345 108.452 46.8189L107.451 48.2498ZM108.137 48.9076C108.767 48.2493 113.06 49.5946 110.341 50.9681L108.137 48.9076ZM110.14 47.105C110.97 47.4196 111.4 48.5931 110.14 48.9938V47.105ZM111.228 49.9672C112.144 49.0228 115.006 49.6237 113.976 50.8258L111.228 49.9672ZM113.289 49.5938C113.804 47.8481 116.866 48.9355 115.865 49.6511L113.289 49.5938ZM112.66 47.8481C112.745 48.1915 112.774 49.05 112.202 49.508L112.66 47.8481ZM115.236 47.505C115.35 47.7912 115.321 48.3348 115.064 48.6783L115.236 47.505ZM117.18 47.5334C117.352 47.8481 117.638 48.4491 117.009 48.9357L117.18 47.5334ZM92.6844 34.369C92.7125 36.0001 93.2853 37.0877 95.4889 36.0575L92.6844 34.369ZM93.3706 36.3156C92.2832 37.7752 93.5136 39.3492 95.6602 37.7752L93.3706 36.3156ZM90.0213 37.0303C91.5093 38.633 94.171 37.4596 92.4538 35.0269L90.0213 37.0303ZM94.2578 38.4045C93.971 39.9786 95.2592 40.2934 96.3178 39.5778L94.2578 38.4045ZM88.7058 37.2881C88.9769 38.8705 90.5946 40.1213 92.1687 39.1483L88.7058 37.2881ZM90.6524 39.4641C90.6524 41.725 93.7717 41.9825 94.4873 39.6358L90.6524 39.4641ZM93.3706 41.0658C94.3721 43.1263 96.547 42.2964 97.2626 41.0374L93.3706 41.0658ZM91.1662 37.7752C91.5669 38.7768 92.3685 39.893 94.2284 39.063L91.1662 37.7752ZM85.4435 37.2881C85.7013 38.1179 87.1893 39.1197 88.9065 37.9748L85.4435 37.2881ZM86.5013 38.3476C85.585 39.6927 87.4169 40.9519 89.6206 38.9485L86.5013 38.3476ZM87.5893 40.0081C87.9612 41.897 88.7049 43.4138 91.3952 40.981L87.5893 40.0081Z" stroke="black" stroke-width="0.521"/>
<path d="M93.5698 55.4036C92.8832 57.3497 93.5417 58.0365 95.0867 58.0651M94.944 42.296C94.8581 43.727 95.144 44.4423 96.2603 44.3851C97.1403 44.3401 97.9774 43.6411 98.464 42.8971L94.944 42.296ZM96.0604 44.3867C96.0315 46.018 97.3191 47.3058 99.7234 45.6459L96.0604 44.3867ZM97.0613 46.3031C96.6035 47.5337 97.9769 49.5369 100.667 48.5067L97.0613 46.3031ZM91.3671 43.0409C91.1959 44.615 92.6553 45.6738 95.0019 43.6418L91.3671 43.0409ZM92.512 44.7867C92.5979 46.0745 94.0572 47.6199 96.2039 45.3876L92.512 44.7867ZM93.5413 46.4187C93.3694 48.6222 95.4014 49.2519 97.1184 47.5636L93.5413 46.4187ZM90.48 44.7867C90.9378 44.8153 91.3097 44.4148 91.5385 44.1284L90.48 44.7867ZM91.4524 46.3885C91.8531 46.4743 92.5404 46.1022 92.7694 45.6445L91.4524 46.3885ZM92.4551 48.9929C92.9129 49.4795 94.4581 49.136 94.6581 48.4779L92.4551 48.9929ZM94.1724 48.9645C95.0311 50.9677 97.3198 50.8818 98.2643 48.621L94.1724 48.9645ZM97.8347 49.4231C98.2636 50.5965 99.3516 51.3405 101.126 50.9399L97.8347 49.4231ZM98.6933 50.6249C97.6919 52.2562 99.008 54.1735 101.24 52.2848L98.6933 50.6249ZM99.2373 53.0569C99.1232 54.0871 100.068 55.2605 101.355 55.4036L99.2373 53.0569ZM95.0009 50.0525C94.6572 52.3705 96.3171 53.4868 98.4067 52.256L95.0009 50.0525ZM92.5689 51.1689C93.1125 51.5982 94.0859 51.6555 95.0014 51.312L92.5689 51.1689ZM96.1173 52.6569C95.6018 54.603 97.6053 56.0054 99.3225 53.8302L96.1173 52.6569ZM93.3422 51.4836C93.3712 52.4852 94.3445 53.5726 96.0325 53.2578L93.3422 51.4836ZM100.754 55.2614C99.6085 56.034 99.3795 57.4077 100.983 58.2948L100.754 55.2614ZM97.9484 54.8596C98.0062 56.0329 98.5499 56.6912 99.8373 56.8055L97.9484 54.8596ZM96.2613 54.2587C94.5443 55.8327 96.2323 57.6644 98.2643 56.119L96.2613 54.2587ZM97.4631 56.6054C96.8906 58.4084 99.0371 59.4958 100.182 57.6642L97.4631 56.6054ZM93.9147 52.7707C93.285 54.5449 94.0866 55.7184 95.5458 55.6039L93.9147 52.7707ZM91.6533 52.4276C91.7392 53.4864 92.6547 53.8585 93.6851 53.6295L91.6533 52.4276ZM92.3111 53.544C91.5385 55.032 92.7118 55.8334 94.2578 55.2612L92.3111 53.544ZM98.9511 58.5805C98.6933 59.5248 98.8362 60.2118 100.239 60.5266L98.9511 58.5805ZM99.0364 59.9262C97.3475 60.699 97.2046 62.3303 98.5209 63.389L99.0364 59.9262ZM97.6764 58.1094C96.7899 58.9108 96.9609 60.2985 97.9342 60.8423L97.6764 58.1094ZM90.1653 52.8862C89.192 53.845 90.1223 56.4921 92.2682 55.0471L90.1653 52.8862ZM95.7458 56.2338C94.4288 57.3213 95.0302 59.296 97.205 58.7522L95.7458 56.2338Z" stroke="black" stroke-width="0.521"/>
<path d="M86.416 56.7209C85.0418 56.7782 84.4412 57.4649 84.4412 58.4095M88.7342 52.7991C87.5609 53.6863 87.8755 54.9455 88.3911 55.5179C88.9061 56.0903 89.8787 55.8326 90.1936 55.0886L88.7342 52.7991ZM86.272 52.0276C84.9557 53.7161 86.272 55.7193 88.1328 55.1184L86.272 52.0276ZM93.3138 57.0356C91.9685 57.5222 90.9426 58.7435 91.7678 59.8116C92.2546 60.4413 94.3722 60.5271 94.9731 58.0944L93.3138 57.0356ZM90.88 55.4605C90.1074 56.5766 90.3644 57.6356 91.7955 58.1792L90.88 55.4605ZM90.7946 57.5511C89.9644 58.0091 89.4204 58.5529 89.6213 59.5545L90.7946 57.5511ZM88.9351 55.8054C88.6204 57.1504 88.992 57.9805 89.8217 58.381L88.9351 55.8054ZM88.9066 57.4071C87.6185 57.3213 86.9607 57.8649 87.3897 59.1243L88.9066 57.4071ZM87.504 57.7218C86.2448 57.2639 86.0439 56.1764 86.5877 55.0317L87.504 57.7218Z" stroke="black" stroke-width="0.521"/>
<path d="M75.2836 53.144C73.6524 52.9437 73.3947 54.8326 73.9383 55.7197M84.5547 51.368C83.5532 51.7974 83.2384 53.1422 83.6101 53.8864C83.9828 54.6304 85.1561 54.6879 85.8716 54.2011L84.5547 51.368ZM81.7511 50.3102C80.8356 51.3405 81.894 53.3438 83.5259 52.8573L81.7511 50.3102ZM79.4044 49.5085C78.5458 50.7102 79.4903 52.7138 81.694 52.1414L79.4044 49.5085ZM81.808 57.7218C81.579 56.2907 83.0672 55.3465 84.8992 57.2066L81.808 57.7218ZM84.0124 54.3174C83.4688 54.8039 83.2117 55.5766 83.2969 56.2063L84.0124 54.3174ZM77.0578 48.8223C76.1132 50.4249 77.2587 51.8845 79.2903 51.312L77.0578 48.8223ZM82.352 52.7991C81.0068 54.1442 81.4645 55.4893 82.4661 56.2619L82.352 52.7991ZM81.4933 54.3743C79.4615 54.4027 79.3474 56.7495 81.0075 57.4937L81.4933 54.3743ZM79.9484 52.0276C79.1187 52.6 78.861 54.1739 80.2921 54.8036L79.9484 52.0276ZM79.8916 55.5476C79.0329 55.1469 78.0027 55.6334 78.0885 56.635L79.8916 55.5476ZM78.6027 55.576C77.83 53.7444 75.5692 54.0592 75.7701 55.9481L78.6027 55.576ZM79.232 53.3147C78.7461 53.4006 77.7728 53.6866 77.4009 54.4308L79.232 53.3147ZM77.5449 51.2542C76.6293 52.2845 77.344 53.5151 78.0885 53.7727L77.5449 51.2542ZM74.8267 48.3636C74.6547 49.5942 75.1413 50.1952 76.6868 50.0807L74.8267 48.3636ZM75.3689 49.9387C74.7675 51.4267 75.5689 52.085 77.1141 51.9991L75.3689 49.9387ZM75.712 51.7698C74.7964 52.8573 75.4261 54.0308 76.3129 54.5172L75.712 51.7698Z" stroke="black" stroke-width="0.521"/>
<path d="M73.28 51.0249C72.4501 52.2841 73.1941 53.2285 74.0814 53.6006M73.9662 48.2214C72.965 48.6507 72.3925 49.9099 72.9363 50.6825C73.4803 51.4552 74.5676 51.1976 75.1685 50.797L73.9662 48.2214Z" stroke="black" stroke-width="0.521"/>
<path d="M64.5511 61.185C63.2631 60.7986 63.2347 59.2674 64.3794 58.6952M70.0747 48.0774C69.4165 48.7641 69.8171 50.1666 71.4197 50.1953C72.71 50.2184 73.3657 48.9933 72.9651 48.1348L70.0747 48.0774ZM71.1911 50.1947C70.6761 51.3396 70.9907 52.57 72.9369 52.3697L71.1911 50.1947ZM73.7671 54.1734C72.5653 53.6297 70.9625 54.1734 71.6494 55.6045L73.7671 54.1734ZM71.4773 52.1414C70.9907 52.8282 71.1627 53.8013 71.7063 54.4022L71.4773 52.1414ZM71.392 53.9725C70.5906 54.1156 69.818 54.545 70.3045 55.8042L71.392 53.9725ZM70.1884 54.7743C69.1582 54.4596 67.8418 55.2036 68.643 56.2623L70.1884 54.7743ZM68.4729 55.2614C67.5858 55.1183 66.5269 56.0626 67.3854 57.0072L68.4729 55.2614ZM67.0418 56.2338C66.2403 56.4342 65.296 57.3499 66.1259 58.0655L67.0418 56.2338ZM71.0773 51.7414C69.9324 52.2564 69.8181 53.5444 70.3618 54.4888L71.0773 51.7414ZM69.8738 49.3663C68.1566 50.0246 68.1852 52.314 70.0741 53.0294L69.8738 49.3663ZM69.2729 52.513C68.2427 53.1138 68.0423 54.2587 68.7292 55.0027L69.2729 52.513ZM67.4702 48.5076C66.7833 48.7366 66.8405 50.8543 68.6722 50.797L67.4702 48.5076ZM65.5822 49.2223C64.2085 50.138 65.8684 52.4561 68.1006 50.7963L65.5822 49.2223ZM66.8693 51.3681C66.669 52.3126 66.9266 53.3428 68.4434 53.4573L66.8693 51.3681ZM66.9547 52.6285C65.8672 53.029 65.6668 55.2614 67.6414 55.4331L66.9547 52.6285ZM63.4933 50.5965C62.091 51.8843 64.6382 53.0004 65.5826 51.1403L63.4933 50.5965ZM61.5467 52.7423C60.8597 53.5721 63.2636 55.7473 64.3227 52.1126L61.5467 52.7423ZM64.5796 52.0561C64.6368 52.9147 65.152 53.4298 66.2107 53.487L64.5796 52.0561ZM66.1831 54.3174C64.4946 54.575 63.9509 56.6927 65.8396 57.1506L66.1831 54.3174ZM63.0631 54.0312C63.0059 54.8324 63.8357 55.4907 64.7803 55.3476L63.0631 54.0312ZM65.6391 57.0925C64.0937 57.436 63.8933 59.4392 65.2672 59.3247L65.6391 57.0925Z" stroke="black" stroke-width="0.521"/>
<path d="M67.4986 81.1032C66.9977 81.16 66.4825 81.4889 66.8546 82.5485C67.1125 83.2832 68.214 83.3209 68.3714 82.8774M63.4933 59.8392C62.4058 60.4975 62.8352 62.0713 63.4074 62.3003C63.9799 62.5293 64.4377 62.2431 64.4951 61.7567L63.4933 59.8392ZM64.4089 63.96C64.5234 64.704 61.7616 64.418 63.1783 62.1L64.4089 63.96ZM63.1626 64.0898C62.2327 65.5494 63.7493 66.7369 64.7081 65.4921L63.1626 64.0898ZM63.2924 65.8498C62.9203 67.0232 64.3369 67.8676 65.2526 66.9517L63.2924 65.8498ZM60.2009 54.8596C59.6857 55.9184 62.2613 56.3192 62.433 54.144L60.2009 54.8596ZM59.4862 56.4347C58.9712 58.4952 62.8631 58.066 61.8615 55.4045L59.4862 56.4347ZM61.9466 56.7778C62.4903 57.0925 64.1218 57.1213 64.5223 55.3755L61.9466 56.7778ZM63.3493 56.8347C63.4638 57.3784 63.9502 58.0365 64.4082 58.237L63.3493 56.8347ZM61.4898 57.3787C61.318 58.4948 62.4341 59.4107 63.7219 59.3248L61.4898 57.3787ZM61.6889 58.4667C61.0594 59.3254 60.859 60.9851 62.8338 61.0996L61.6889 58.4667ZM58.6844 58.7529C58.3698 59.64 60.2298 60.556 61.3173 59.0964L58.6844 58.7529ZM58.112 61.0125C57.9545 61.6852 59.6288 62.5865 60.5731 59.7247L58.112 61.0125ZM59.8293 61.1849C60.23 61.9003 61.5751 62.4728 62.405 61.0704L59.8293 61.1849ZM61.0595 61.9298C60.7161 62.9314 61.6604 63.8758 62.8053 63.5897L61.0595 61.9298ZM58.9138 61.7005C58.6848 63.1314 60.3447 63.9613 61.3749 63.2173L58.9138 61.7005ZM57.8258 62.3298C57.3394 64.1615 59.686 64.8482 60.5731 63.4745L57.8258 62.3298ZM59.9733 64.0187C60.0592 65.0489 61.6618 65.936 62.921 65.0776L59.9733 64.0187ZM57.1111 64.8774C56.9966 65.3352 58.9141 65.7931 59.2002 64.1904L57.1111 64.8774ZM58.2275 65.2774C58.6853 66.4507 60.2307 66.7369 61.118 65.306L58.2275 65.2774ZM60.6026 65.8783C60.803 66.9657 62.2053 67.5668 63.4359 66.8226L60.6026 65.8783ZM63.9502 67.2525C63.6355 68.712 65.1522 69.8854 66.0965 69.0841L63.9502 67.2525ZM61.5182 66.9947C61.0604 68.5974 63.0636 69.5131 64.1797 68.626L61.5182 66.9947ZM59.1146 66.1929C59.0002 67.6809 60.1735 68.5682 61.5186 67.9099L59.1146 66.1929ZM56.5671 66.3369C56.1664 67.3099 58.2842 68.1112 59.2858 67.2815L56.5671 66.3369ZM55.2498 68.9983C55.7936 69.6278 57.6823 68.9983 57.854 67.596L55.2498 68.9983ZM57.3404 68.6249C58.0272 69.4264 59.6585 69.8555 60.3168 68.1384L57.3404 68.6249ZM59.744 69.0267C59.7154 70.2573 61.9191 71.1446 62.6345 68.8836L59.744 69.0267ZM65.2231 69.3272C65.0227 69.928 65.4951 70.8868 66.4823 71.0013L65.2231 69.3272ZM63.4062 68.9556C63.2631 69.6424 64.2649 70.6009 65.3237 70.2148L63.4062 68.9556ZM65.5253 70.5005C65.2391 71.2445 65.4823 72.3176 66.4839 72.3033L65.5253 70.5005ZM65.6249 71.8889C64.8809 72.5184 65.1955 73.6347 66.269 73.6777L65.6249 71.8889ZM65.2391 72.9467C64.1802 73.6617 64.5523 75.236 65.9545 75.1508L65.2391 72.9467ZM62.0338 69.9138C62.0338 71.4592 63.9511 71.688 64.3232 70.2573L62.0338 69.9138ZM63.5786 71.1725C63.2924 72.0882 64.0364 72.9755 65.2098 72.7179L63.5786 71.1725ZM63.808 82.2196C64.0658 82.5922 65.1244 81.9625 64.8382 81.333C64.552 80.7033 63.4304 81.0456 63.5504 81.7048L63.808 82.2196ZM64.5795 81.0747C64.7226 79.8155 63.2345 79.6155 62.8624 80.7028L64.5795 81.0747ZM63.4062 80.0738C63.7783 79.4441 62.5191 78.5858 62.0039 79.5014L63.4062 80.0738ZM62.4622 79.128C62.8057 78.2118 61.3747 77.8118 61.2602 78.6415L62.4622 79.128ZM60.9458 77.4392C61.1175 76.9814 62.72 77.2672 62.0332 78.2118L60.9458 77.4392ZM63.264 79.3574C63.8937 78.7849 62.8348 77.6116 62.1765 78.0411L63.264 79.3574Z" stroke="black" stroke-width="0.521"/>
<path d="M55.8222 70.8863C55.7648 71.4587 56.0512 72.4317 57.5108 72.0311M66.7698 81.6329C66.2832 81.3183 65.2244 81.8477 65.7109 82.8781C66.0772 83.6537 66.9988 83.3359 67.1419 82.9352L66.7698 81.6329ZM64.0356 83.1067C64.2786 83.5357 65.4949 83.3503 65.7097 82.8777L64.0356 83.1067ZM64.8658 81.6898C65.1234 81.5179 65.5954 81.7319 65.6956 81.9469L64.8658 81.6898ZM64.7804 74.6356C63.9506 75.1792 64.4658 76.8393 65.7534 76.4098L64.7804 74.6356ZM64.5227 75.9814C63.8644 76.4962 64.4654 78.0992 65.696 77.4984L64.5227 75.9814ZM64.7236 77.4978C64.2658 77.9556 64.7093 79.229 65.8969 78.9858L64.7236 77.4978ZM64.5511 78.1272C64.2933 78.0123 63.621 78.0982 63.3346 78.5272L64.5511 78.1272ZM63.808 72.3316C63.1785 72.9325 63.4788 74.1634 64.6521 74.2633L63.808 72.3316ZM63.5787 73.5903C62.677 74.034 62.677 75.8221 64.48 75.8939L63.5787 73.5903ZM63.5076 75.608C63.0068 76.0088 63.25 77.554 64.5378 77.3533L63.5076 75.608ZM63.9218 77.2969C63.7356 77.4829 63.707 77.9554 63.8645 78.1556L63.9218 77.2969ZM63.3493 76.7103C62.8916 76.7245 62.2905 77.0539 62.1328 77.5259L63.3493 76.7103ZM61.3031 75.8658C61.4748 75.408 62.8916 75.4368 62.9916 76.7821L61.3031 75.8658ZM63.1342 75.1796C62.9339 75.2226 62.5476 75.4086 62.4475 75.7951L63.1342 75.1796ZM62.5191 70.9876C61.9036 71.5456 61.6034 73.3058 63.4777 73.6489L62.5191 70.9876ZM61.2747 74.6214C61.2747 74.1488 62.5483 73.7481 62.9918 74.4495L61.2747 74.6214ZM60.4587 72.0596C60.6446 72.4175 61.5317 72.904 62.0756 72.5033L60.4587 72.0596ZM55.8507 69.256C55.8222 70.0859 56.509 70.8301 57.4533 70.7156C58.3977 70.6011 58.5982 69.7711 58.312 69.2274L55.8507 69.256ZM57.5964 70.744C56.9668 71.5167 57.7396 72.6043 58.4551 72.2895L57.5964 70.744ZM58.3129 70.2C58.685 70.0569 59.9156 69.8854 60.2876 70.4576L58.3129 70.2ZM54.3342 70.4294C54.048 70.8587 55.8224 71.288 56.4233 70.4578L54.3342 70.4294Z" stroke="black" stroke-width="0.521"/>
<path d="M53.9342 71.0018C53.5049 71.7458 55.1648 73.1055 56.1093 71.8463M57.7404 72.9183C57.9694 72.4317 56.8818 71.6305 56.0519 72.5176C55.222 73.4047 56.1664 74.4065 56.6816 74.0628L57.7404 72.9183Z" stroke="black" stroke-width="0.521"/>
<path d="M52.832 72.2889C52.2311 72.9044 52.9751 74.0347 53.8766 73.6912C54.7779 73.3478 54.6923 72.4034 54.4777 72.1602" stroke="black" stroke-width="0.521"/>
<path d="M65.4951 83.8801C66.0101 84.2808 66.926 83.8232 66.926 83.2216M51.6729 73.4339C51.1863 73.8772 51.6585 74.9219 52.3312 74.9219C53.0035 74.9219 53.4187 74.3928 53.2898 73.7201L51.6729 73.4339ZM54.4053 73.3485C54.3194 74.0067 55.2924 74.4644 55.9221 73.8497L54.4053 73.3485ZM55.952 72.6463C56.0379 72.5032 55.9664 72.2598 55.8234 72.1453L55.952 72.6463ZM50.6293 74.321C50.0715 74.7647 51.2734 75.9951 52.0316 74.8646L50.6293 74.321ZM54.9351 74.0774C54.5772 74.4205 55.1497 75.3219 55.7219 75.0499L54.9351 74.0774ZM52.976 74.7067C53.0618 75.3215 54.2638 75.7793 55.0222 74.8356L52.976 74.7067ZM53.6338 75.3219C53.4478 75.7085 53.8199 76.3242 54.2778 76.2381L53.6338 75.3219ZM65.024 78.8579C64.5806 79.7304 65.997 80.7467 67.0274 79.6875L65.024 78.8579ZM66.0533 80.1592C65.8387 80.631 66.0963 81.2895 66.4827 81.5325L66.0533 80.1592ZM64.7093 81.1459C64.8096 80.7162 65.4247 80.3156 65.9829 80.5162L64.7093 81.1459ZM63.9644 80.0152C64.0503 79.6294 64.5653 79.2426 64.9518 79.3432L63.9644 80.0152ZM97.6622 62.1574C95.6304 62.186 96.4889 65.4486 98.2347 64.7903L97.6622 62.1574ZM97.0044 64.5627C96.6037 65.2211 97.3763 66.2657 98.2347 65.6502L97.0044 64.5627ZM98.0071 65.7787C97.4057 66.7803 99.5523 68.3114 100.411 66.7373L98.0071 65.7787ZM99.7244 67.3379C99.7525 68.2824 102.5 68.8833 102.1 66.9944L99.7244 67.3379ZM101.842 68.0241C102.5 69.1402 104.961 69.2547 104.703 67.5947L101.842 68.0241ZM104.16 68.7405C104.676 69.4845 107.079 69.9423 106.993 68.3971L104.16 68.7405ZM94.4 59.3254C94.7431 60.2125 95.9164 60.5274 97.2044 60.0122L94.4 59.3254ZM93.6569 59.9547C94.4583 60.4698 93.285 62.8166 92.0547 61.8721L93.6569 59.9547ZM93.6569 61.4143C94.5443 61.8436 95.6316 61.5288 95.9465 60.2694L93.6569 61.4143ZM95.4027 61.2419C95.4885 61.9002 96.433 62.4152 97.6634 62.1576L95.4027 61.2419ZM93.1982 61.9299C94.3434 62.9028 92.6834 64.9062 91.939 63.9903L93.1982 61.9299ZM93.6284 62.673C94.1721 63.0737 95.5744 62.8447 95.7173 61.7859L93.6284 62.673ZM95.088 62.673C95.2028 63.3597 95.7465 63.6173 96.5191 63.6459L95.088 62.673ZM93.3138 63.617C93.8857 64.4184 95.3168 64.6472 95.9463 63.5885L93.3138 63.617ZM95.3155 64.1894C95.2587 64.9622 96.117 65.5917 97.0044 65.42L95.3155 64.1894ZM92.1973 65.9067C92.941 66.2787 93.7426 64.8765 93.1129 63.9035L92.1973 65.9067ZM93.056 67.3947C93.9435 67.452 94.0574 66.1069 93.2279 65.3627L93.056 67.3947ZM95.088 68.625C95.8325 68.4532 95.6028 66.8219 93.7998 66.6788L95.088 68.625ZM97.3475 69.8285C98.0631 69.6282 97.4905 67.8251 95.5164 67.9396L97.3475 69.8285ZM100.068 70.4579C100.553 69.7139 98.9511 68.4547 97.635 69.1128L100.068 70.4579ZM101.412 71.4872C102.299 71.7448 102.9 69.3981 100.095 69.77L101.412 71.4872ZM103.044 71.4872C103.817 71.2868 104.361 69.8845 102.1 70.3423L103.044 71.4872ZM104.761 71.6027C105.447 71.9462 105.762 69.9428 103.673 70.4867L104.761 71.6027ZM93.2267 65.3627C94.0853 65.8493 95.4304 65.2769 95.3155 64.1894L93.2267 65.3627ZM94.9724 65.1352C95.2592 65.6502 95.1443 66.652 94.6005 66.9094L94.9724 65.1352ZM95.0578 66.337C95.6302 66.5659 96.403 66.3656 96.8608 65.4499L95.0578 66.337ZM96.0604 66.337C96.2316 66.7377 96.2894 67.5389 95.9168 67.9396L96.0604 66.337ZM96.2044 67.0232C96.8341 67.3667 97.5778 66.9087 97.8926 66.2504L96.2044 67.0232ZM97.4915 66.8223C97.9493 67.1085 98.3502 68.4536 97.5774 68.9974L97.4915 66.8223ZM98.0071 68.369C98.5507 68.3974 99.3523 68.3974 99.8672 67.7107L98.0071 68.369ZM99.4951 68.0827C99.9817 68.2259 100.554 69.0273 100.354 69.7427L99.4951 68.0827ZM100.382 69.4836C100.927 69.4264 101.87 69.0543 102.128 68.3962L100.382 69.4836ZM101.87 68.8259C102.329 69.0835 102.644 69.6271 102.586 70.2568L101.87 68.8259ZM102.585 69.7983C103.129 69.7699 103.615 69.4836 103.758 68.8826L102.585 69.7983ZM103.616 69.2845C104.017 69.4276 104.503 69.8854 104.532 70.4294L103.616 69.2845ZM104.475 70.0845C104.875 70.0273 105.161 69.7699 105.419 69.369L104.475 70.0845ZM106.507 69.313C107.022 69.8282 106.335 71.5453 105.276 71.2305L106.507 69.313ZM95.5164 34.6267C94.4572 35.2563 91.4519 35.0561 92.9401 32.5663L95.5164 34.6267ZM95.8027 32.9379C93.7138 33.7677 91.1374 32.1652 93.8279 30.4195L95.8027 32.9379ZM93.1129 29.8481C91.3671 29.8481 90.1936 32.6527 92.541 33.6257L93.1129 29.8481ZM86.3306 31.0214C85.8729 31.9085 87.504 32.8815 88.6203 31.9944C89.4848 31.3071 89.421 29.4474 88.9061 28.7318L86.3306 31.0214ZM85.4435 33.1387C84.8711 35.0275 89.0784 35.1419 88.4199 32.137L85.4435 33.1387ZM85.2142 35.9441C85.3571 37.375 89.2498 36.9171 87.9898 34.0266L85.2142 35.9441ZM88.448 33.2241C88.7626 33.6534 89.6213 34.3974 91.0805 34.2543L88.448 33.2241ZM89.1342 31.1921C89.2631 31.7071 90.1356 32.1078 91.2521 31.7217L89.1342 31.1921ZM50.0853 74.7352C49.0981 75.4367 50.6149 76.5382 51.1728 75.3219L50.0853 74.7352ZM49.312 75.2792C48.3248 75.98 49.8416 77.0815 50.3995 75.8651L49.312 75.2792ZM48.496 75.809C47.5084 76.5105 49.0254 77.612 49.5835 76.3956L48.496 75.809ZM47.6373 76.2961C46.6928 76.7969 47.7947 78.0273 48.7534 76.9396L47.6373 76.2961ZM46.7075 76.769C45.763 77.2691 46.865 78.5002 47.8236 77.4125L46.7075 76.769ZM51.5022 75.2934C51.4878 76.023 52.8759 76.3238 53.3765 75.2356L51.5022 75.2934ZM52.3751 75.9672C51.9458 76.5108 52.733 77.1835 53.1623 76.9396L52.3751 75.9672ZM50.528 75.8659C50.485 76.4813 51.6869 76.8392 52.2738 76.1667L50.528 75.8659ZM51.1875 76.5112C50.801 77.012 51.5595 77.6845 52.0462 77.4836L51.1875 76.5112ZM49.728 76.4241C49.7707 76.9107 50.4576 77.4685 51.2018 77.1537L49.728 76.4241ZM50.1706 77.0819C49.8844 77.3396 50.0275 77.9411 50.4282 78.1272L50.1706 77.0819ZM48.6826 77.0392C48.5682 77.4829 49.3267 78.2703 50.0994 77.7547L48.6826 77.0392ZM48.8391 77.5547C48.3813 77.9126 48.4384 78.4561 49.025 78.5272L48.8391 77.5547ZM47.7387 77.4979C47.6814 77.7979 48.0679 78.2845 48.5545 78.2275L47.7387 77.4979ZM45.2906 77.4694C44.8329 77.7124 46.0062 78.9574 46.7358 77.7983L45.2906 77.4694ZM44.16 77.9832C43.5875 78.2557 45.0044 79.6291 45.6339 78.2267L44.16 77.9832ZM47.8667 77.9263C47.4229 78.0264 47.1369 78.6708 47.5088 78.9277L47.8667 77.9263ZM46.4213 78.1556C46.3641 78.4134 46.9079 78.8422 47.3516 78.6854L46.4213 78.1556ZM46.0498 78.2712C45.6204 78.5432 45.8494 79.3009 46.3502 79.1867L46.0498 78.2712ZM44.5191 78.7707C44.1184 79.0708 44.3902 79.6721 44.9484 79.5293L44.5191 78.7707ZM45.248 78.7281C45.2624 78.8851 45.6201 79.1288 45.9207 79.0289L45.248 78.7281ZM43.1307 78.4703C42.63 78.6851 42.6587 79.9444 44.3472 79.2579L43.1307 78.4703ZM42 78.9716C41.2987 79.3153 41.5276 80.2598 43.0588 79.3583L42 78.9716ZM43.1875 79.4303C43.0016 79.5732 42.8014 80.2029 43.5022 79.9592L43.1875 79.4303ZM41.9004 79.729C41.6142 79.9867 41.8003 80.5165 42.4302 80.3156L41.9004 79.729ZM40.4266 79.8161C39.9116 80.1169 41.0418 80.5176 41.8003 79.716L40.4266 79.8161ZM40.7698 80.1876C40.5408 80.4166 40.5408 81.089 41.1417 80.8461L40.7698 80.1876ZM39.3102 80.4596C38.9667 80.7174 39.5534 81.0611 40.6266 80.5885L39.3102 80.4596ZM39.7386 80.8312C39.3379 81.1601 39.3808 81.5748 39.9676 81.4459L39.7386 80.8312ZM38.5511 81.0179C38.1075 81.4186 38.7514 81.6904 39.5241 81.361L38.5511 81.0179ZM38.5653 81.4623C37.8067 81.8054 38.136 82.4347 38.608 82.1919L38.5653 81.4623ZM63.8933 83.6507C63.7173 84.0294 64.294 84.3373 64.8379 84.2516C65.36 84.1693 65.8597 83.7389 65.4672 83.1359L63.8933 83.6507Z" stroke="black" stroke-width="0.521"/>
<path d="M97.0613 23.2365C94.7717 22.0916 90.0213 19.9739 88.6761 21.6911C89.9063 21.1761 93.5123 21.7197 96.4887 24.4671L97.0611 23.2365H97.0613Z" fill="white" stroke="black" stroke-width="0.521"/>
<path d="M98.4498 23.1156C95.8023 20.0317 94.243 20.722 92.3394 19.6598C90.5513 18.6618 87.7031 18.4579 87.1513 20.0451C89.7639 18.7727 92.1625 20.7293 93.6357 20.9659C95.6594 21.2909 96.8016 22.8555 97.3936 23.575L98.4499 23.1156H98.4498ZM108.423 22.721C107.049 19.5729 104.111 20.3951 102.813 19.0579C100.925 17.1119 96.1461 15.3089 94.1712 16.6539C98.5209 16.425 100.373 19.6522 102.699 20.775C104.359 21.5764 106.133 23.2934 108.423 22.7211V22.721Z" fill="white" stroke="black" stroke-width="0.521"/>
<path d="M103.273 22.3778C100.926 19.4587 97.3194 16.8831 95.6602 17.8561C97.835 17.9706 98.5217 19.4874 100.068 20.4603C101.613 21.4333 100.926 22.8356 103.273 22.3778ZM92.1102 27.5298C89.6487 26.6141 84.8412 26.1562 82.6087 28.961C86.3294 29.5903 91.9383 29.247 92.1102 27.5298Z" fill="white" stroke="black" stroke-width="0.521"/>
<path d="M91.6533 28.6178C89.1918 27.4729 87.2697 29.072 84.9563 28.8468C80.5495 28.4175 77.4014 28.6751 77.0007 30.7928C79.5193 28.532 83.7548 30.3922 85.4718 29.9343C87.1888 29.4763 93.5422 29.877 95.5452 30.7355C94.5148 29.4763 92.9127 29.133 91.6533 28.6178V28.6178ZM99.3795 22.0632C98.8076 20.1743 98.8359 18.1711 101.669 18.3142C100.954 17.4271 98.3211 16.9691 97.8914 20.2889C94.7721 17.9995 91.3662 17.5988 90.7372 19.5736C92.3394 18.1999 94.8292 19.2015 97.8053 22.5785C98.0631 22.4354 98.7499 22.1492 99.3794 22.0633L99.3795 22.0632Z" fill="white" stroke="black" stroke-width="0.521"/>
<path d="M95.088 24.6676C93.3138 23.5229 90.9095 21.6626 95.117 20.9186C93.3139 19.9457 90.6807 20.3748 90.9673 23.6946C86.1591 21.7485 82.7065 22.4054 81.9806 24.3242C81.179 26.442 84.1562 27.6154 84.6709 26.2703C84.1271 26.4993 82.2672 25.8698 83.2398 24.6676C84.2131 23.4658 89.1998 24.3681 93.9434 26.8427C95.2597 27.5297 99.7813 27.4152 95.0878 24.6676H95.088Z" fill="white" stroke="black" stroke-width="0.521"/>
<path d="M93.8275 27.8161C92.4586 25.021 88.0179 27.5585 87.123 24.8511C85.8999 28.8177 93.4378 26.6228 93.8275 27.8161ZM122.075 30.8489C123.006 31.3117 123.811 30.5842 122.386 30.0137C123.318 30.4761 124.131 29.7663 122.706 29.1954C123.638 29.6578 124.451 28.948 123.026 28.3773C122.647 28.7597 122.103 30.1622 122.075 30.8489V30.8489ZM122.56 25.4694C124.621 23.2945 122.389 22.5503 124.907 20.3181C126.967 18.4918 125.3 17.2745 127.254 15.8536C127.884 15.3958 129.257 14.4799 129.372 13.5641C130.202 15.6246 126.796 15.9108 127.025 19.2306C127.17 21.3444 125.741 21.1597 125.193 24.7254C125.079 25.4694 124.564 27.1293 122.56 25.4694V25.4694Z" fill="white" stroke="black" stroke-width="0.521"/>
<path d="M123.477 26.4418C124.622 23.9807 125.936 24.0279 126.568 23.0649C127.77 21.2333 130.317 23.3796 132.463 21.7485C132.091 24.0665 129.201 23.2365 127.942 24.7248C126.683 26.2128 125.652 26.8999 123.477 26.442V26.4418Z" fill="white" stroke="black" stroke-width="0.521"/>
<path d="M123.764 27.2436C125.767 25.6409 127.244 26.7103 128.629 25.8699C132.12 23.7521 133.523 26.2991 136.642 25.2975C135.812 27.3007 131.204 25.5837 129.201 27.0719C127.198 28.5599 120.158 29.991 123.764 27.2436ZM117.925 38.6623C117.896 37.7465 117.038 36.573 115.836 36.4301C114.634 36.287 114.119 35.0278 113.203 34.9705C112.288 34.9133 111.686 33.0817 110.427 33.1103C109.168 33.1389 108.653 34.7702 111.6 36.2584C114.548 37.7465 117.81 39.4637 117.925 38.6625V38.6623ZM114.204 39.4356C112.945 39.4929 112.773 41.3245 111.572 41.3817C113.231 42.2689 114.433 40.981 115.292 39.8363L114.204 39.4356Z" fill="white" stroke="black" stroke-width="0.521"/>
<path d="M115.236 39.6632C114.148 40.5789 113.833 42.4964 115.407 43.0401C114.463 41.7379 117.067 41.1512 116.266 39.9492L115.236 39.663V39.6632Z" fill="white" stroke="black" stroke-width="0.521"/>
<path d="M116.322 39.7218C115.463 41.3818 117.667 41.5819 117.094 42.8413C118.354 42.5551 118.554 40.1798 117.409 39.5501L116.322 39.7218Z" fill="white" stroke="black" stroke-width="0.521"/>
<path d="M107.908 36.1716C109.968 36.0571 111.853 37.172 113.116 38.9762C113.918 40.1209 116.608 40.5789 117.524 39.663C118.439 38.7474 117.925 36.8011 115.635 37.4308C115.063 36.4578 113.402 36.8013 112.602 35.9999C111.8 35.1986 108.709 32.9092 107.908 36.1716Z" fill="white" stroke="black" stroke-width="0.521"/>
<path d="M115.636 37.4321C115.092 37.5465 114.92 38.4909 115.263 38.9775L115.636 37.4321ZM116.809 38.0045C116.981 38.2907 116.866 38.6913 116.78 38.8916L116.809 38.0045ZM111.172 36.2587C112.23 36.316 112.431 37.0888 113.575 37.3748Z" fill="white"/>
<path d="M111.172 36.2587C112.23 36.316 112.431 37.0888 113.575 37.3748M115.636 37.4321C115.092 37.5465 114.92 38.4909 115.263 38.9775L115.636 37.4321ZM116.809 38.0045C116.981 38.2907 116.866 38.6913 116.78 38.8916L116.809 38.0045Z" stroke="black" stroke-width="0.521" stroke-linecap="round"/>
<path d="M110.471 33.6543C114.128 34.57 117.03 35.3715 118.829 36.4017C120.628 37.4319 123.414 37.7181 125.852 37.0314C128.29 36.3444 132.99 35.7149 132.759 38.7485C134.036 37.2315 132.41 35.6003 129.16 35.314C129.219 33.826 127.626 32.4808 126.481 33.3679C127.54 33.225 128.454 35.1995 126.365 36.0008C126.771 34.5128 125.291 33.1675 123.753 33.8259C124.74 34.1121 125.738 35.7666 123.53 36.4015C122.137 36.8022 120.106 36.2872 118.597 35.3713C117.088 34.4555 108.614 31.1357 110.471 33.6543V33.6543Z" fill="white" stroke="black" stroke-width="0.521"/>
<path d="M119.7 32.1663C118.555 32.6813 119.299 33.8834 117.525 34.5702C115.75 35.2569 114.52 36.831 114.92 38.1761C116.123 35.5432 118.24 35.6577 118.984 34.6274C119.729 33.5972 120.816 32.0804 119.7 32.1663Z" fill="white" stroke="black" stroke-width="0.521"/>
<path d="M120.014 32.337C119.957 34.426 118.313 33.665 118.955 36.6011C119.156 37.5169 119.527 39.0051 118.898 40.4932C120.744 39.1482 119.556 36.3226 120.386 35.2561C120.787 34.7411 121.301 33.9396 121.502 33.2529C121.073 34.4547 121.102 36.6872 122.275 37.2595C121.33 35.0271 124.822 33.1956 122.418 30.62C122.075 31.2497 120.987 32.3658 120.014 32.3371V32.337ZM114.176 30.2481C114.463 30.6774 114.748 31.7649 114.491 32.3659C115.063 32.0225 115.894 31.1354 116.151 30.5343C117.324 30.706 117.782 32.1656 116.666 32.7951C117.353 32.7951 118.526 32.7951 119.184 32.0225C118.383 31.1354 115.894 29.7615 114.176 30.2481H114.176Z" fill="white" stroke="black" stroke-width="0.521"/>
<path d="M96.3751 26.1432C96.1898 25.9743 95.8773 25.8139 95.3166 25.6987C93.584 25.3435 94.4787 23.7816 95.9536 23.7955C99.101 20.3613 100.868 23.0086 104.703 21.9211C106.045 21.5407 106.967 21.6532 107.698 21.9695C109.415 20.8246 111.429 21.1446 112.889 22.4897C113.052 22.2317 113.269 22.0347 113.575 21.9498C114.92 21.5764 116.007 22.7227 116.379 24.2111C117.427 24.0168 118.624 24.5355 119.411 25.2511C120.502 24.6911 121.253 24.6662 121.529 25.2419C122.503 24.7841 123.763 24.497 124.393 26.0422C125.023 27.5876 122.905 27.1299 122.561 30.3924C122.349 32.4049 120.1 33.1969 118.325 31.9949C115.487 30.0719 112.717 29.7626 111.343 32.6819C109.969 35.601 108.893 37.297 105.562 36.345C104.36 36.0015 102.814 36.4595 101.842 37.7759C100.868 39.0923 99.3802 37.8616 97.6062 38.0047C99.838 37.6614 98.9833 37.0998 100.926 36.9745C102.7 36.86 102.243 35.2003 103.387 34.9713C98.9225 36.1162 99.0944 34.4561 95.4314 35.6008C97.0338 33.5403 99.5523 34.6851 100.812 33.4831C97.4915 33.4259 96.0071 31.257 94.5152 32.1667C92.1685 33.5978 93.1982 37.6715 87.0745 37.3179C84.0981 37.1462 82.2092 37.5469 80.4352 39.3215C83.5264 32.9108 87.7308 36.4326 89.765 34.399C90.9671 33.1971 91.8826 32.2811 92.5122 31.1364C92.7337 30.7336 93.0338 30.5032 93.4085 30.4141C88.3145 28.8115 91.3952 26.3149 96.3753 26.1434L96.3751 26.1432Z" fill="white" stroke="black" stroke-width="0.521"/>
<path d="M121.527 25.2418C121.605 25.4027 121.645 25.6116 121.645 25.8699C121.645 27.1289 119.756 27.1864 119.642 29.0466C119.582 30.0196 119.47 30.5632 118.812 30.4488C118.154 30.3343 117.581 29.304 118.211 28.1021" fill="white"/>
<path d="M121.527 25.2418C121.605 25.4027 121.645 25.6116 121.645 25.8699C121.645 27.1289 119.756 27.1864 119.642 29.0466C119.582 30.0196 119.47 30.5632 118.812 30.4488C118.154 30.3343 117.581 29.304 118.211 28.1021" stroke="black" stroke-width="0.521" stroke-linecap="round"/>
<path d="M97.3191 24.2676C96.8449 23.9345 96.371 23.7992 95.9457 23.7953L97.3191 24.2676ZM107.687 21.9601C109.203 22.6161 109.942 24.1905 112.143 24.2676C114.263 24.342 115.578 27.4157 119.126 25.4123C119.223 25.3581 119.317 25.3075 119.408 25.2605L107.687 21.9601ZM112.889 22.4899C112.572 22.993 112.501 23.6948 112.587 24.311L112.889 22.4899ZM105.963 28.961C103.273 28.961 102.586 30.3347 102.586 31.6511C102.586 32.9675 103.845 34.6847 106.077 34.6847C108.309 34.6847 109.512 33.311 109.512 31.8228C109.512 30.3347 108.137 28.961 105.963 28.961V28.961Z" fill="white" stroke="black" stroke-width="0.521"/>
<path d="M106.448 34.6267C106.391 33.8827 105.046 33.997 105.103 33.4247C105.16 32.8523 105.847 32.6233 105.847 31.8221C105.847 31.0208 107.049 30.9634 107.449 31.5931C107.85 32.2226 109.052 33.4532 109.31 32.8237L106.448 34.6267ZM107.451 31.5938C106.821 32.2233 106.535 33.5111 107.365 34.5129L107.451 31.5938ZM108.309 32.5662C108.109 32.9956 108.052 33.6537 108.281 34.0542Z" fill="white"/>
<path d="M108.309 32.5662C108.109 32.9956 108.052 33.6537 108.281 34.0542M106.448 34.6267C106.391 33.8827 105.046 33.997 105.103 33.4247C105.16 32.8523 105.847 32.6233 105.847 31.8221C105.847 31.0208 107.049 30.9634 107.449 31.5931C107.85 32.2226 109.052 33.4532 109.31 32.8237L106.448 34.6267ZM107.451 31.5938C106.821 32.2233 106.535 33.5111 107.365 34.5129L107.451 31.5938Z" stroke="black" stroke-width="0.521"/>
<path d="M116.409 24.2107C115.679 23.2808 114.005 22.9659 113.976 24.9405M118.997 30.4632C121.101 30.6349 121.459 28.3167 119.885 28.1737L118.997 30.4632Z" stroke="black" stroke-width="0.521"/>
<path d="M113.776 27.1867C113.06 25.4125 111.229 25.1547 110.255 26.0418C109.446 26.7803 109.426 28.7035 111.172 29.1042C111.772 28.3888 112.946 27.4443 113.776 27.1869V27.1867ZM112.988 26.0703C111.958 25.1544 110.441 26.8859 111.815 28.4742L112.988 26.0703ZM93.3884 30.4063C94.0782 30.2427 95.0862 30.5801 96.6322 31.3071C97.6055 31.765 100.525 32.7382 102.356 31.765C100.467 32.452 99.0366 29.5899 97.6055 29.9334C96.1744 30.2768 93.5559 30.8063 92.4544 29.7616C95.144 29.9334 96.5907 27.8024 99.6656 29.6472C100.525 30.1624 101.612 30.5058 102.585 30.4486C100.067 27.415 96.747 29.3609 96.4033 26.9C97.9203 28.5312 101.626 26.5279 103.515 29.5901L93.3884 30.4063ZM96.9475 27.3574C96.5934 26.9165 96.7534 26.4774 96.3733 26.1298Z" fill="white"/>
<path d="M96.9475 27.3574C96.5934 26.9165 96.7534 26.4774 96.3733 26.1298M113.776 27.1867C113.06 25.4125 111.229 25.1547 110.255 26.0418C109.446 26.7803 109.426 28.7035 111.172 29.1042C111.772 28.3888 112.946 27.4443 113.776 27.1869V27.1867ZM112.988 26.0703C111.958 25.1544 110.441 26.8859 111.815 28.4742L112.988 26.0703ZM93.3884 30.4063C94.0782 30.2427 95.0862 30.5801 96.6322 31.3071C97.6055 31.765 100.525 32.7382 102.356 31.765C100.467 32.452 99.0366 29.5899 97.6055 29.9334C96.1744 30.2768 93.5559 30.8063 92.4544 29.7616C95.144 29.9334 96.5907 27.8024 99.6656 29.6472C100.525 30.1624 101.612 30.5058 102.585 30.4486C100.067 27.415 96.747 29.3609 96.4033 26.9C97.9203 28.5312 101.626 26.5279 103.515 29.5901L93.3884 30.4063Z" stroke="black" stroke-width="0.521"/>
<path d="M116.409 24.2107C115.779 23.5382 114.406 24.0676 114.792 25.427C115.093 24.7975 115.736 24.2679 116.409 24.2107ZM112.517 27.8765C112.951 27.5618 113.398 27.3035 113.775 27.1863C113.569 26.6772 113.272 26.2928 112.929 26.0247C112.602 25.7986 111.661 27.0637 112.517 27.8765Z" fill="black"/>
<path d="M105.876 26.2427C104.76 26.0423 103.815 26.3572 104.416 26.7577M110.827 25.5547C109.796 24.8679 108.852 24.9252 108.537 25.4974C107.793 25.469 107.178 26.0126 107.149 27.1001L110.827 25.5547ZM108.738 27.5582C107.508 26.7142 105.818 27.0288 105.933 28.9177L108.738 27.5582ZM105.189 29.9902C105.79 29.5037 106.649 29.1604 107.307 30.0189L105.189 29.9902ZM114.377 28.1307C114.148 28.4454 113.976 28.9319 114.348 29.6761C113.89 29.0752 112.746 29.0752 111.514 30.6777L114.377 28.1307ZM117.095 28.0454C115.607 28.2171 115.636 29.1901 116.837 29.6194L117.095 28.0454ZM106.507 24.4098C105.247 24.1522 104.332 24.8964 106.078 25.5259L106.507 24.4098ZM108.91 23.5511C107.135 23.1218 106.42 23.5796 107.221 23.9805L108.91 23.5511ZM103.787 30.6782C103.73 31.3079 104.072 32.1378 105.103 31.1934L103.787 30.6782ZM104.132 32.5662C104.132 32.738 104.103 32.9382 103.988 33.0813L104.132 32.5662ZM100.009 24.1805C98.9214 23.8658 98.7214 22.864 99.9808 22.9499L100.009 24.1805ZM99.6373 26.4987C98.435 26.098 98.435 24.9246 99.4364 25.0391L99.6373 26.4987ZM101.87 25.8978C100.468 25.5543 100.411 24.5814 101.47 24.7245L101.87 25.8978ZM102.041 22.9218C101.297 22.8646 100.152 23.6946 102.07 24.181L102.041 22.9218ZM104.132 24.5822C102.386 24.3246 102.415 25.0402 103.444 25.4982L104.132 24.5822ZM105.447 22.9218C104.102 22.6642 103.644 23.4656 104.56 23.8089L105.447 22.9218ZM101.212 27.8729C100.883 27.6011 100.612 26.2989 102.185 26.6854L101.212 27.8729ZM104.475 27.4729C103.416 27.1867 102.415 28.2169 103.387 28.818L104.475 27.4729Z" stroke="black" stroke-width="0.521" stroke-linecap="round"/>
<path d="M116.348 24.2108C115.719 24.3272 115.156 24.6968 114.791 25.4268Z" fill="white"/>
<path d="M116.348 24.2108C115.719 24.3272 115.156 24.6968 114.791 25.4268" stroke="black" stroke-width="0.521"/>
</svg>
