<svg width="106" height="130" viewBox="0 0 106 130" fill="none" xmlns="http://www.w3.org/2000/svg">
<path d="M3.82426 62.9304H92.6867L3.82426 6.94958V126.153H92.6867L3.82426 36.7504V62.9304Z" fill="#DC143C"/>
<path d="M26.0399 59.7416C35.8148 59.7416 43.7383 51.7699 43.7383 41.9356C42.1832 45.9141 39.3693 49.207 35.7851 51.3527L34.2745 50.2203L37.2366 47.9852L33.6524 47.0614L35.5482 43.828L31.8456 44.3644L32.3935 40.6691L29.1797 42.6062L28.2614 38.9556L26.0399 41.9356L23.8183 38.9556L22.8853 42.5913L19.6862 40.684L20.2342 44.4091L16.5316 43.8578L18.457 47.0912L14.8432 48.015L17.8053 50.2501L16.3243 51.3974C12.8142 49.3113 9.95578 46.0929 8.35625 41.9803C8.35625 51.8146 16.2798 59.7863 26.0547 59.7863L26.0399 59.7416Z" fill="white"/>
<path d="M17.5091 85.9663L9.57071 84.9829L14.3841 91.3901L7.02332 94.549L14.3841 97.678L9.57071 104.085L17.5091 103.102L16.5316 111.103L22.9001 106.261L26.0399 113.681L29.1501 106.261L35.5482 111.118L34.5707 103.132L42.5091 104.13L37.6957 97.7227L45.0565 94.5937L37.6957 91.4348L42.5091 85.0276L34.5707 85.9961L35.5482 78.0095L29.1797 82.8522L26.0399 75.4169L22.9297 82.8224L16.5316 77.9797L17.5091 85.9663Z" fill="white"/>
</svg>
